<svg width="34" height="16" viewBox="0 0 34 16" fill="none" xmlns="http://www.w3.org/2000/svg">
<path fill-rule="evenodd" clip-rule="evenodd" d="M17 9.87164C17.1184 10.0158 21.547 15.3753 25.7327 15.3753C29.9754 15.3753 32.3775 11.1033 32.3775 11.1033C34.0308 8.13967 32.5648 5.238 32.5648 5.238C32.5648 5.238 30.4435 0.624702 25.7327 0.624702C21.089 0.624702 17.1121 6.03794 17 6.19167C16.888 6.03794 12.9111 0.624702 8.26738 0.624702C3.55675 0.624702 1.43522 5.238 1.43522 5.238C1.43522 5.238 -0.0308061 8.13967 1.62248 11.1033C1.62248 11.1033 4.02465 15.3753 8.26738 15.3753C12.4531 15.3753 16.8817 10.0158 17 9.87164ZM8.44545 3.20074C5.54378 3.20074 4.30878 5.56207 4.30878 5.56207C4.30878 5.56207 2.98145 7.67674 4.30878 10.3934C5.63645 13.1101 8.39945 12.8631 8.39945 12.8631C8.39945 12.8631 9.90272 13.0791 12.31 11.0068C13.1442 10.2886 14.087 9.2957 15.1135 7.92374C15.1135 7.92374 11.3475 3.20074 8.44545 3.20074ZM25.7202 3.20074C28.6219 3.20074 29.8569 5.56207 29.8569 5.56207C29.8569 5.56207 31.1841 7.67674 29.8569 10.3934C28.5292 13.1101 25.7662 12.8631 25.7662 12.8631C25.7662 12.8631 24.2629 13.0791 21.8556 11.0068C21.0214 10.2886 20.0786 9.2957 19.0522 7.92374C19.0522 7.92374 22.8182 3.20074 25.7202 3.20074Z" fill="url(#paint0_linear_18_53)"/>
<defs>
<linearGradient id="paint0_linear_18_53" x1="15.2108" y1="15.6247" x2="17.7108" y2="0.624702" gradientUnits="userSpaceOnUse">
<stop stop-color="#FB923C"/>
<stop offset="0.496353" stop-color="#EF4444"/>
<stop offset="1" stop-color="#701A75"/>
</linearGradient>
</defs>
</svg>
