<svg width="26" height="34" viewBox="0 0 26 34" fill="none" xmlns="http://www.w3.org/2000/svg">
<g filter="url(#filter0_ii_18_233)">
<path fill-rule="evenodd" clip-rule="evenodd" d="M1.87961 0.125C1.03394 0.125 0.34375 0.813538 0.34375 1.66285V32.3371C0.34375 33.1854 1.03137 33.875 1.87961 33.875H24.1204C24.9661 33.875 25.6562 33.1866 25.6562 32.3371V8.34324L17.4416 0.125H1.87961Z" fill="url(#paint0_linear_18_233)"/>
</g>
<mask id="mask0_18_233" style="mask-type:alpha" maskUnits="userSpaceOnUse" x="0" y="0" width="26" height="34">
<path fill-rule="evenodd" clip-rule="evenodd" d="M1.87961 0.125C1.03394 0.125 0.34375 0.813538 0.34375 1.66285V32.3371C0.34375 33.1854 1.03137 33.875 1.87961 33.875H24.1204C24.9661 33.875 25.6562 33.1866 25.6562 32.3371V8.34324L17.4416 0.125H1.87961Z" fill="white"/>
</mask>
<g mask="url(#mask0_18_233)">
<path fill-rule="evenodd" clip-rule="evenodd" d="M17.8177 8.0401L25.6834 16.0163V8.0401H17.8177Z" fill="url(#paint1_linear_18_233)" fill-opacity="0.8"/>
<path fill-rule="evenodd" clip-rule="evenodd" d="M17.8177 8.0401L25.6834 16.0163V8.0401H17.8177Z" fill="url(#paint2_linear_18_233)"/>
<path d="M25.6793 -1.80873H19.1364C18.0773 -1.80873 17.2188 -0.950182 17.2188 0.108886V6.64488C17.2188 7.70395 18.0773 8.56249 19.1364 8.56249H25.6793C26.7383 8.56249 27.5969 7.70395 27.5969 6.64488V0.108886C27.5969 -0.950182 26.7383 -1.80873 25.6793 -1.80873Z" fill="#A6C5FA"/>
<path fill-rule="evenodd" clip-rule="evenodd" d="M6.86365 15.4659H19.1364V16.6165H6.86365V15.4659ZM6.86365 18.1506H19.1364V19.3011H6.86365V18.1506ZM6.86365 20.8352H19.1364V21.9858H6.86365V20.8352ZM6.86365 23.5199H14.5341V24.6705H6.86365V23.5199Z" fill="white"/>
</g>
<defs>
<filter id="filter0_ii_18_233" x="0.34375" y="-0.5" width="25.3125" height="35" filterUnits="userSpaceOnUse" color-interpolation-filters="sRGB">
<feFlood flood-opacity="0" result="BackgroundImageFix"/>
<feBlend mode="normal" in="SourceGraphic" in2="BackgroundImageFix" result="shape"/>
<feColorMatrix in="SourceAlpha" type="matrix" values="0 0 0 0 0 0 0 0 0 0 0 0 0 0 0 0 0 0 127 0" result="hardAlpha"/>
<feOffset dy="-0.625"/>
<feGaussianBlur stdDeviation="1.25"/>
<feComposite in2="hardAlpha" operator="arithmetic" k2="-1" k3="1"/>
<feColorMatrix type="matrix" values="0 0 0 0 0.223529 0 0 0 0 0.454902 0 0 0 0 0.835294 0 0 0 1 0"/>
<feBlend mode="normal" in2="shape" result="effect1_innerShadow_18_233"/>
<feColorMatrix in="SourceAlpha" type="matrix" values="0 0 0 0 0 0 0 0 0 0 0 0 0 0 0 0 0 0 127 0" result="hardAlpha"/>
<feOffset dy="0.625"/>
<feGaussianBlur stdDeviation="1.25"/>
<feComposite in2="hardAlpha" operator="arithmetic" k2="-1" k3="1"/>
<feColorMatrix type="matrix" values="0 0 0 0 0.423529 0 0 0 0 0.631373 0 0 0 0 0.968627 0 0 0 1 0"/>
<feBlend mode="normal" in2="effect1_innerShadow_18_233" result="effect2_innerShadow_18_233"/>
</filter>
<linearGradient id="paint0_linear_18_233" x1="0.34375" y1="0.125" x2="0.34375" y2="33.875" gradientUnits="userSpaceOnUse">
<stop stop-color="#518FF5"/>
<stop offset="1" stop-color="#4385F4"/>
</linearGradient>
<linearGradient id="paint1_linear_18_233" x1="17.8177" y1="8.0401" x2="17.8177" y2="16.0163" gradientUnits="userSpaceOnUse">
<stop stop-color="#3664B2"/>
<stop offset="1" stop-color="#4788F4" stop-opacity="0.01"/>
</linearGradient>
<linearGradient id="paint2_linear_18_233" x1="20.8049" y1="8.38838" x2="20.8049" y2="10.3064" gradientUnits="userSpaceOnUse">
<stop stop-color="#345FA7"/>
<stop offset="1" stop-color="#2B70E3" stop-opacity="0.01"/>
</linearGradient>
</defs>
</svg>
