<svg width="14" height="22" viewBox="0 0 14 22" fill="none" xmlns="http://www.w3.org/2000/svg">
<path fill-rule="evenodd" clip-rule="evenodd" d="M11.9009 14.3037C12.4824 13.5861 13.0704 12.4017 13.1102 10.9955C13.1357 10.0977 13.0635 9.39974 12.8039 8.76303C12.3116 7.55534 11.3325 6.72091 10.3826 6.2351C10.3826 6.2351 8.74362 5.40717 6.68299 4.47554C6.68299 4.47554 4.49114 3.53975 3.06949 2.08427C3.06949 2.08427 2.42377 1.33639 2.12441 0.875C2.12441 0.875 0.902331 3.32859 0.902331 4.82558C0.902331 4.82558 0.733705 6.41163 1.4478 7.25062C2.1619 8.08964 3.29334 8.65286 3.29334 8.65286C3.29334 8.65286 4.53556 9.35821 6.56556 10.1971C8.73975 11.0855 9.45816 11.6362 9.45816 11.6362C9.45816 11.6362 10.1321 12.1764 10.6099 12.9808C10.9596 13.5694 11.2422 14.2731 10.9026 15.1638C10.9026 15.1638 11.407 14.9133 11.9009 14.3037Z" fill="url(#paint0_linear_18_138)"/>
<mask id="mask0_18_138" style="mask-type:alpha" maskUnits="userSpaceOnUse" x="0" y="0" width="14" height="16">
<path fill-rule="evenodd" clip-rule="evenodd" d="M11.9009 14.3037C12.4824 13.5861 13.0704 12.4017 13.1102 10.9955C13.1357 10.0977 13.0635 9.39974 12.8039 8.76303C12.3116 7.55534 11.3325 6.72091 10.3826 6.2351C10.3826 6.2351 8.74362 5.40717 6.68299 4.47554C6.68299 4.47554 4.49114 3.53975 3.06949 2.08427C3.06949 2.08427 2.42377 1.33639 2.12441 0.875C2.12441 0.875 0.902331 3.32859 0.902331 4.82558C0.902331 4.82558 0.733705 6.41163 1.4478 7.25062C2.1619 8.08964 3.29334 8.65286 3.29334 8.65286C3.29334 8.65286 4.53556 9.35821 6.56556 10.1971C8.73975 11.0855 9.45816 11.6362 9.45816 11.6362C9.45816 11.6362 10.1321 12.1764 10.6099 12.9808C10.9596 13.5694 11.2422 14.2731 10.9026 15.1638C10.9026 15.1638 11.407 14.9133 11.9009 14.3037Z" fill="white"/>
</mask>
<g mask="url(#mask0_18_138)">
<path opacity="0.52746" fill-rule="evenodd" clip-rule="evenodd" d="M2.13571 0.833099C2.13571 0.833099 1.62159 2.81232 2.87872 4.63157C3.52702 5.56975 4.82016 6.47054 6.69082 7.12591C8.10231 7.62045 9.21564 8.04858 10.0621 8.5619C12.5129 10.0481 12.9959 12.0019 13.6692 13.3789C14.575 15.2315 10.7328 16.2832 10.7328 16.2832L5.22899 10.9588L-0.522985 7.53793L-0.79892 2.67378L2.13571 0.833099Z" fill="url(#paint1_linear_18_138)"/>
</g>
<path fill-rule="evenodd" clip-rule="evenodd" d="M4.96089 10.87C6.02967 11.3654 6.75539 11.5204 6.75539 11.5204C6.75539 11.5204 8.34717 11.9406 9.46418 11.6412C9.46418 11.6412 9.88216 11.9198 10.2913 12.4097C10.6177 12.8004 10.9365 13.3287 11.0472 13.9333C11.0472 13.9333 11.2018 14.5633 10.905 15.1637C10.905 15.1637 10.0739 15.4207 9.33193 15.3263C9.33193 15.3263 8.8228 13.9024 6.3743 12.8968C6.3743 12.8968 5.10294 12.3532 3.73356 11.8405C3.73356 11.8405 2.80739 11.3667 2.88852 10.6786C2.88852 10.6786 2.93112 10.4274 3.31104 10.3617C3.41652 10.3435 3.57568 10.3426 3.73356 10.3617C3.73356 10.3617 4.0597 10.4491 4.96089 10.87Z" fill="url(#paint2_linear_18_138)"/>
<mask id="mask1_18_138" style="mask-type:alpha" maskUnits="userSpaceOnUse" x="2" y="10" width="10" height="6">
<path fill-rule="evenodd" clip-rule="evenodd" d="M4.96089 10.87C6.02967 11.3654 6.75539 11.5204 6.75539 11.5204C6.75539 11.5204 8.34717 11.9406 9.46418 11.6412C9.46418 11.6412 9.88216 11.9198 10.2913 12.4097C10.6177 12.8004 10.9365 13.3287 11.0472 13.9333C11.0472 13.9333 11.2018 14.5633 10.905 15.1637C10.905 15.1637 10.0739 15.4207 9.33193 15.3263C9.33193 15.3263 8.8228 13.9024 6.3743 12.8968C6.3743 12.8968 5.10294 12.3532 3.73356 11.8405C3.73356 11.8405 2.80739 11.3667 2.88852 10.6786C2.88852 10.6786 2.93112 10.4274 3.31104 10.3617C3.41652 10.3435 3.57568 10.3426 3.73356 10.3617C3.73356 10.3617 4.0597 10.4491 4.96089 10.87Z" fill="white"/>
</mask>
<g mask="url(#mask1_18_138)">
<path fill-rule="evenodd" clip-rule="evenodd" d="M5.57025 12.5974C5.57025 12.5974 9.00195 14.2227 11.3471 12.9553C13.6922 11.6879 8.25367 11.3724 8.25367 11.3724L3.37055 10.1526L2.29889 11.0506L3.18521 12.1067" fill="url(#paint3_linear_18_138)"/>
</g>
<path fill-rule="evenodd" clip-rule="evenodd" d="M2.92683 10.8231C2.94077 11.4222 3.73073 11.7611 3.73073 11.7611C3.73073 11.7611 5.41637 12.4298 5.93184 12.6573C5.93184 12.6573 7.57306 13.3277 8.39317 14.0893C8.39317 14.0893 10.0044 15.4522 9.95748 17.4734C9.95748 17.4734 9.98031 19.7995 7.73336 21.125C7.73336 21.125 7.8467 19.0842 5.88241 17.4495C5.88241 17.4495 4.11311 15.9962 3.02322 15.2564C3.02322 15.2564 1.49603 14.2472 1.32111 12.821C1.32111 12.821 1.09253 11.1527 2.31002 10.4194C2.31002 10.4194 2.93431 10.0613 3.75213 10.366C3.75213 10.366 2.91289 10.2239 2.92683 10.8231Z" fill="url(#paint4_linear_18_138)"/>
<mask id="mask2_18_138" style="mask-type:alpha" maskUnits="userSpaceOnUse" x="1" y="10" width="9" height="12">
<path fill-rule="evenodd" clip-rule="evenodd" d="M2.92683 10.8231C2.94077 11.4222 3.73073 11.7611 3.73073 11.7611C3.73073 11.7611 5.41637 12.4298 5.93184 12.6573C5.93184 12.6573 7.57306 13.3277 8.39317 14.0893C8.39317 14.0893 10.0044 15.4522 9.95748 17.4734C9.95748 17.4734 9.98031 19.7995 7.73336 21.125C7.73336 21.125 7.8467 19.0842 5.88241 17.4495C5.88241 17.4495 4.11311 15.9962 3.02322 15.2564C3.02322 15.2564 1.49603 14.2472 1.32111 12.821C1.32111 12.821 1.09253 11.1527 2.31002 10.4194C2.31002 10.4194 2.93431 10.0613 3.75213 10.366C3.75213 10.366 2.91289 10.2239 2.92683 10.8231Z" fill="white"/>
</mask>
<g mask="url(#mask2_18_138)">
<g filter="url(#filter0_d_18_138)">
<path fill-rule="evenodd" clip-rule="evenodd" d="M9.17615 11.7993C9.17615 11.7993 5.11346 12.1861 4.74179 12.3145C3.99906 12.5712 2.24072 12.0926 3.81565 12.9791C4.01134 13.0893 4.34792 13.2311 4.74179 13.3862C5.22813 13.5778 5.80356 13.7958 6.32991 14.0737C8.0847 15 8.70212 16.0666 9.01979 16.9472C9.41417 18.0404 8.9028 18.9548 8.48894 19.9164C8.09315 20.8361 7.51571 21.4296 7.13762 21.9449C7.11499 21.9758 6.8411 21.8014 6.82189 21.8333C5.87634 23.4044 11.4257 18.659 11.4257 18.659L10.2136 13.8228L8.0274 12.3145L9.17615 11.7993Z" fill="black" fill-opacity="0.01"/>
</g>
<path fill-rule="evenodd" clip-rule="evenodd" d="M3.7315 10.3569C3.7315 10.3569 3.43569 10.2368 2.95968 10.3569C2.17294 10.5953 1.1984 12.291 5.46062 13.6992C8.96851 15.0264 9.52871 17.7479 8.78149 19.4841C8.36199 20.4588 7.59269 21.291 7.25271 21.8559C6.30713 23.427 11.4258 18.659 11.4258 18.659L10.2137 13.8228L8.02744 12.3145L3.7315 10.3569Z" fill="url(#paint5_linear_18_138)"/>
<path fill-rule="evenodd" clip-rule="evenodd" d="M3.32371 9.82443L6.12488 10.2626C6.12488 10.2626 4.51983 10.0438 3.44841 10.1504C3.08788 10.1863 2.359 10.2652 2.24724 10.3761C1.37908 10.8921 0.725418 13.5552 4.39462 15.0314C9.44535 17.2529 8.83868 19.1281 6.98439 22.4694C5.1301 25.8107 -2.18024 14.4618 -2.18024 14.4618L-0.306317 9.27429L3.32371 9.82443Z" fill="url(#paint6_linear_18_138)"/>
</g>
<defs>
<filter id="filter0_d_18_138" x="2.05536" y="9.1743" width="14.9954" height="17.1029" filterUnits="userSpaceOnUse" color-interpolation-filters="sRGB">
<feFlood flood-opacity="0" result="BackgroundImageFix"/>
<feColorMatrix in="SourceAlpha" type="matrix" values="0 0 0 0 0 0 0 0 0 0 0 0 0 0 0 0 0 0 127 0" result="hardAlpha"/>
<feOffset dx="2.25" dy="0.75"/>
<feGaussianBlur stdDeviation="1.6875"/>
<feColorMatrix type="matrix" values="0 0 0 0 1 0 0 0 0 0.225204 0 0 0 0 0 0 0 0 0.677281 0"/>
<feBlend mode="normal" in2="BackgroundImageFix" result="effect1_dropShadow_18_138"/>
<feBlend mode="normal" in="SourceGraphic" in2="effect1_dropShadow_18_138" result="shape"/>
</filter>
<linearGradient id="paint0_linear_18_138" x1="-0.311193" y1="8.53768" x2="10.1876" y2="14.5361" gradientUnits="userSpaceOnUse">
<stop stop-color="#53FEE4"/>
<stop offset="0.512023" stop-color="#2EA7AF"/>
<stop offset="1" stop-color="#084D78"/>
</linearGradient>
<linearGradient id="paint1_linear_18_138" x1="-2.45376" y1="12.7116" x2="9.84274" y2="18.6302" gradientUnits="userSpaceOnUse">
<stop stop-color="#60FFE9"/>
<stop offset="0.239679" stop-color="#39BCC0"/>
<stop offset="0.687649" stop-color="#156795"/>
<stop offset="1" stop-color="#0E567E"/>
</linearGradient>
<linearGradient id="paint2_linear_18_138" x1="8.01091" y1="14.9851" x2="11.0874" y2="14.9851" gradientUnits="userSpaceOnUse">
<stop stop-color="#830173"/>
<stop offset="1" stop-color="#6F0079"/>
</linearGradient>
<linearGradient id="paint3_linear_18_138" x1="1.98016" y1="12.3067" x2="4.56833" y2="16.3017" gradientUnits="userSpaceOnUse">
<stop stop-color="#91007B"/>
<stop offset="0.252014" stop-color="#BC017A"/>
<stop offset="0.411661" stop-color="#D20179"/>
<stop offset="0.665063" stop-color="#BC0179"/>
<stop offset="1" stop-color="#92017A"/>
</linearGradient>
<linearGradient id="paint4_linear_18_138" x1="-0.708671" y1="17.8581" x2="8.72017" y2="22.4751" gradientUnits="userSpaceOnUse">
<stop stop-color="#FFE249"/>
<stop offset="0.414108" stop-color="#FD9531"/>
<stop offset="0.542223" stop-color="#FE7829"/>
<stop offset="0.659738" stop-color="#FE6824"/>
<stop offset="0.861605" stop-color="#FE5C1F"/>
<stop offset="1" stop-color="#FF4918"/>
</linearGradient>
<linearGradient id="paint5_linear_18_138" x1="0.0297017" y1="14.8078" x2="6.3095" y2="22.4413" gradientUnits="userSpaceOnUse">
<stop stop-color="#FFE84C"/>
<stop offset="0.660206" stop-color="#FD6F27"/>
<stop offset="1" stop-color="#FE6321"/>
</linearGradient>
<linearGradient id="paint6_linear_18_138" x1="-2.94077" y1="15.2229" x2="5.83437" y2="23.1292" gradientUnits="userSpaceOnUse">
<stop stop-color="#FEEF4C"/>
<stop offset="0.115863" stop-color="#FFF54F"/>
<stop offset="0.580454" stop-color="#FB5B1F"/>
<stop offset="1" stop-color="#FE4819"/>
</linearGradient>
</defs>
</svg>
