<svg width="258" height="258" viewBox="0 0 258 258" fill="none" xmlns="http://www.w3.org/2000/svg">
<path d="M250.735 168.554C240.245 200.84 217.358 227.637 187.111 243.049L129 129L250.735 168.554Z" fill="#94A3B8" stroke="white"></path>
<path d="M187.111 243.049C169.866 251.836 150.852 256.597 131.501 256.976C112.15 257.354 92.9655 253.339 75.3901 245.232C57.8148 237.126 42.3066 225.14 30.0322 210.175C17.7578 195.21 9.03696 177.657 4.52564 158.835C0.0143219 140.014 -0.169973 120.414 3.98661 101.511C8.14322 82.6077 16.5325 64.8933 28.5233 49.7004C40.514 34.5074 55.7941 22.2315 73.2139 13.7962C90.6337 5.36086 109.74 0.98576 129.094 1.00003L129 129L187.111 243.049Z" fill="#64748B" stroke="white"></path>
<path d="M129 1.00013C149.2 1.00013 169.113 5.78082 187.111 14.9513C205.109 24.1218 220.681 37.4217 232.554 53.7636C244.427 70.1055 252.264 89.0255 255.424 108.977C258.584 128.928 256.977 149.343 250.735 168.554L129 129L129 1.00013Z" fill="#CBD5E1" stroke="white"></path>
</svg>
