<svg width="418" height="127" viewBox="0 0 418 127" fill="none" xmlns="http://www.w3.org/2000/svg">
<path d="M4 108.708L21.9937 102.796L39.6661 92.2927L57.3386 87.0734L75.3323 97.4275L93.0047 95.1266L110.998 92.2927L128.992 75.6197H146.665L164.658 80.9376L182.331 88.9908L200.324 83.2385L217.997 57.545L235.991 52.5597L253.663 59.8481L271.335 62.5303L289.329 57.545L307.002 67.8991L324.995 69.433L342.668 75.6197L360.661 85.9229L378.334 80.9376L396.328 64.8312L414 33.0079" stroke="#94A3B8" stroke-width="2" stroke-linecap="round" stroke-linejoin="round"></path>
<path d="M4 108.708L21.9937 102.796L39.6661 92.2927L57.3386 87.0734L75.3323 97.4275L93.0047 95.1266L110.998 92.2927L128.992 75.6197H146.665L164.658 80.9376L182.331 88.9908L200.324 83.2385L217.997 57.545L235.991 52.5597L253.663 59.8481L271.335 62.5303L289.329 57.545L307.002 67.8991L324.995 69.433L342.668 75.6197L360.661 85.9229L378.334 80.9376L396.328 64.8312L414 33.0079" stroke="#94A3B8" stroke-width="8" stroke-linecap="round" stroke-linejoin="round" stroke-dasharray="0.01 50"></path>
<path d="M4 108.708L21.9937 102.796L39.6661 92.2927L57.3386 87.0734L75.3323 97.4275L93.0047 95.1266L110.998 92.2927L128.992 75.6197H146.665L164.658 80.9376L182.331 88.9908L200.324 83.2385L217.997 57.545L235.991 52.5597L253.663 59.8481L271.335 62.5303L289.329 57.545L307.002 67.8991L324.995 69.433L342.668 75.6197L360.661 85.9229L378.334 80.9376L396.328 64.8312L414 33.0079" stroke="white" stroke-width="6" stroke-linecap="round" stroke-linejoin="round" stroke-dasharray="0.01 50"></path>
<path d="M4 122.708L21.9937 92.3771L39.6661 80.6496L57.3386 65.5712L75.3323 67.2465L93.0047 60.5451L110.998 67.2465L128.992 60.5451L146.665 63.8958H164.658L182.331 69.7596H200.324L217.997 60.5451L235.991 53.4271L253.663 48.8175H271.335L289.329 43.7914L307.002 38.3464L324.995 43.7914L342.668 53.4271L360.661 73.1103L378.334 71.435L394.391 54.0819L404.196 34.158L414 4.00793" stroke="#CBD5E1" stroke-width="2" stroke-linecap="round" stroke-linejoin="round"></path>
<path d="M4 122.708L21.9937 92.3771L39.6661 80.6496L57.3386 65.5712L75.3323 67.2465L93.0047 60.5451L110.998 67.2465L128.992 60.5451L146.665 63.8958H164.658L182.331 69.7596H200.324L217.997 60.5451L235.991 53.4271L253.663 48.8175H271.335L289.329 43.7914L307.002 38.3464L324.995 43.7914L342.668 53.4271L360.661 73.1103L378.334 71.435L394.391 54.0819L404.196 34.158L414 4.00793" stroke="#CBD5E1" stroke-width="8" stroke-linecap="round" stroke-linejoin="round" stroke-dasharray="0.01 50"></path>
<path d="M4 122.708L21.9937 92.3771L39.6661 80.6496L57.3386 65.5712L75.3323 67.2465L93.0047 60.5451L110.998 67.2465L128.992 60.5451L146.665 63.8958H164.658L182.331 69.7596H200.324L217.997 60.5451L235.991 53.4271L253.663 48.8175H271.335L289.329 43.7914L307.002 38.3464L324.995 43.7914L342.668 53.4271L360.661 73.1103L378.334 71.435L394.391 54.0819L404.196 34.158L414 4.00793" stroke="white" stroke-width="6" stroke-linecap="round" stroke-linejoin="round" stroke-dasharray="0.01 50"></path>
</svg>
