<svg width="18" height="16" viewBox="0 0 18 16" fill="none" xmlns="http://www.w3.org/2000/svg">
<path fill-rule="evenodd" clip-rule="evenodd" d="M1.39901 3.12942C0.958666 3.12942 0.600006 3.49372 0.600006 3.9431V14.0863C0.600006 14.5348 0.957726 14.9 1.39901 14.9H16.601C17.0414 14.9 17.4 14.5357 17.4 14.0863V3.9431C17.4 3.49458 17.0422 3.12942 16.601 3.12942H13.6309C13.4971 3.04752 13.3631 2.95092 13.2348 2.83704C12.5021 2.1868 12.3925 1.80454 12.3925 1.80454C12.2256 1.41544 11.7322 1.1 11.2913 1.1H9.00001V2.1147V1.1H6.70871C6.26781 1.1 5.77437 1.41544 5.60755 1.80454C5.60755 1.80454 5.49795 2.1868 4.76525 2.83704C4.63693 2.95092 4.50289 3.04752 4.36907 3.12942H1.39901Z" fill="url('#paint0_linear_18_197')"></path>
<path fill-rule="evenodd" clip-rule="evenodd" d="M12.3925 1.80454C12.3925 1.80454 12.5021 2.1868 13.2348 2.83704C13.3631 2.95092 13.4971 3.04752 13.6309 3.12942H16.601C17.0422 3.12942 17.4 3.49458 17.4 3.9431V14.0863C17.4 14.5357 17.0414 14.9 16.601 14.9H1.39901C0.957726 14.9 0.600006 14.5348 0.600006 14.0863V3.9431C0.600006 3.49372 0.958666 3.12942 1.39901 3.12942H4.36907C4.50289 3.04752 4.63693 2.95092 4.76525 2.83704C5.49795 2.1868 5.60755 1.80454 5.60755 1.80454C5.77437 1.41544 6.26781 1.1 6.70871 1.1H11.2913C11.7322 1.1 12.2256 1.41544 12.3925 1.80454ZM11.2913 0.725C11.5966 0.725 11.8993 0.832173 12.1467 0.990455C12.3934 1.14824 12.6174 1.37758 12.7371 1.65677L12.7464 1.67848L12.7503 1.69208C12.7518 1.69588 12.7549 1.70332 12.7601 1.71429C12.7734 1.74242 12.8005 1.79412 12.85 1.86761C12.9489 2.01466 13.1375 2.24939 13.4837 2.55656C13.5667 2.63021 13.6529 2.69588 13.7405 2.75442H16.601C17.256 2.75442 17.775 3.29418 17.775 3.9431V14.0863C17.775 14.7366 17.2547 15.275 16.601 15.275H1.39901C0.743949 15.275 0.225006 14.7352 0.225006 14.0863V3.9431C0.225006 3.29279 0.745435 2.75442 1.39901 2.75442H4.25951C4.34707 2.69588 4.43335 2.63021 4.51633 2.55656C4.86246 2.24939 5.05109 2.01466 5.15003 1.86761C5.19948 1.79412 5.2266 1.74241 5.23989 1.71428C5.24507 1.70332 5.24817 1.69588 5.24968 1.69208L5.25358 1.67848L5.26289 1.65677C5.38258 1.37758 5.60661 1.14824 5.85328 0.990455C6.10073 0.832173 6.40342 0.725 6.70871 0.725H11.2913Z" fill="#CBD5E1"></path>
<g filter="url('#filter0_ii_18_197')">
<path d="M2.20003 2.59998C2.20003 2.4343 2.33435 2.29998 2.50003 2.29998H3.30003C3.46571 2.29998 3.60003 2.4343 3.60003 2.59998V3.09998H2.20003V2.59998Z" fill="url('#paint1_linear_18_197')"></path>
</g>
<g filter="url('#filter1_d_18_197')">
<path fill-rule="evenodd" clip-rule="evenodd" d="M12.7999 6.09998C13.0209 6.09998 13.1999 5.9209 13.1999 5.69998C13.1999 5.47906 13.0209 5.29998 12.7999 5.29998C12.579 5.29998 12.3999 5.47906 12.3999 5.69998C12.3999 5.9209 12.579 6.09998 12.7999 6.09998Z" fill="url('#paint2_linear_18_197')"></path>
</g>
<g filter="url('#filter2_d_18_197')">
<path d="M17.4 4.3H0.600006V4.5H17.4V4.3Z" fill="white"></path>
</g>
<g filter="url('#filter3_d_18_197')">
<path d="M17.4 13.3H0.600006V13.5H17.4V13.3Z" fill="white"></path>
</g>
<g filter="url('#filter4_d_18_197')">
<path fill-rule="evenodd" clip-rule="evenodd" d="M12.725 8.89997C12.725 10.9572 11.0572 12.625 8.99996 12.625C6.9427 12.625 5.27496 10.9572 5.27496 8.89997C5.27496 6.8427 6.9427 5.17497 8.99996 5.17497C11.0572 5.17497 12.725 6.8427 12.725 8.89997ZM8.99996 12.25C10.8501 12.25 12.35 10.7501 12.35 8.89997C12.35 7.04981 10.8501 5.54997 8.99996 5.54997C7.1498 5.54997 5.64996 7.04981 5.64996 8.89997C5.64996 10.7501 7.1498 12.25 8.99996 12.25Z" fill="white"></path>
</g>
<defs>
<filter id="filter0_ii_18_197" x="2.20003" y="1.92498" width="1.39999" height="1.55" filterUnits="userSpaceOnUse" color-interpolation-filters="sRGB">
<feFlood flood-opacity="0" result="BackgroundImageFix"></feFlood>
<feBlend mode="normal" in="SourceGraphic" in2="BackgroundImageFix" result="shape"></feBlend>
<feColorMatrix in="SourceAlpha" type="matrix" values="0 0 0 0 0 0 0 0 0 0 0 0 0 0 0 0 0 0 127 0" result="hardAlpha"></feColorMatrix>
<feOffset dy="0.375"></feOffset>
<feGaussianBlur stdDeviation="0.375"></feGaussianBlur>
<feComposite in2="hardAlpha" operator="arithmetic" k2="-1" k3="1"></feComposite>
<feColorMatrix type="matrix" values="0 0 0 0 0 0 0 0 0 0 0 0 0 0 0 0 0 0 0.694265 0"></feColorMatrix>
<feBlend mode="normal" in2="shape" result="effect1_innerShadow_18_197"></feBlend>
<feColorMatrix in="SourceAlpha" type="matrix" values="0 0 0 0 0 0 0 0 0 0 0 0 0 0 0 0 0 0 127 0" result="hardAlpha"></feColorMatrix>
<feOffset dy="-0.375"></feOffset>
<feGaussianBlur stdDeviation="0.75"></feGaussianBlur>
<feComposite in2="hardAlpha" operator="arithmetic" k2="-1" k3="1"></feComposite>
<feColorMatrix type="matrix" values="0 0 0 0 0.8 0 0 0 0 0.807843 0 0 0 0 0.815686 0 0 0 1 0"></feColorMatrix>
<feBlend mode="normal" in2="effect1_innerShadow_18_197" result="effect2_innerShadow_18_197"></feBlend>
</filter>
<filter id="filter1_d_18_197" x="11.6499" y="4.92498" width="2.3" height="2.3" filterUnits="userSpaceOnUse" color-interpolation-filters="sRGB">
<feFlood flood-opacity="0" result="BackgroundImageFix"></feFlood>
<feColorMatrix in="SourceAlpha" type="matrix" values="0 0 0 0 0 0 0 0 0 0 0 0 0 0 0 0 0 0 127 0" result="hardAlpha"></feColorMatrix>
<feOffset dy="0.375"></feOffset>
<feGaussianBlur stdDeviation="0.375"></feGaussianBlur>
<feColorMatrix type="matrix" values="0 0 0 0 0 0 0 0 0 0 0 0 0 0 0 0 0 0 0.578182 0"></feColorMatrix>
<feBlend mode="normal" in2="BackgroundImageFix" result="effect1_dropShadow_18_197"></feBlend>
<feBlend mode="normal" in="SourceGraphic" in2="effect1_dropShadow_18_197" result="shape"></feBlend>
</filter>
<filter id="filter2_d_18_197" x="0.225006" y="4.3" width="17.55" height="0.950001" filterUnits="userSpaceOnUse" color-interpolation-filters="sRGB">
<feFlood flood-opacity="0" result="BackgroundImageFix"></feFlood>
<feColorMatrix in="SourceAlpha" type="matrix" values="0 0 0 0 0 0 0 0 0 0 0 0 0 0 0 0 0 0 127 0" result="hardAlpha"></feColorMatrix>
<feOffset dy="0.375"></feOffset>
<feGaussianBlur stdDeviation="0.1875"></feGaussianBlur>
<feColorMatrix type="matrix" values="0 0 0 0 0 0 0 0 0 0 0 0 0 0 0 0 0 0 0.407609 0"></feColorMatrix>
<feBlend mode="normal" in2="BackgroundImageFix" result="effect1_dropShadow_18_197"></feBlend>
<feBlend mode="normal" in="SourceGraphic" in2="effect1_dropShadow_18_197" result="shape"></feBlend>
</filter>
<filter id="filter3_d_18_197" x="0.225006" y="13.3" width="17.55" height="0.950001" filterUnits="userSpaceOnUse" color-interpolation-filters="sRGB">
<feFlood flood-opacity="0" result="BackgroundImageFix"></feFlood>
<feColorMatrix in="SourceAlpha" type="matrix" values="0 0 0 0 0 0 0 0 0 0 0 0 0 0 0 0 0 0 127 0" result="hardAlpha"></feColorMatrix>
<feOffset dy="0.375"></feOffset>
<feGaussianBlur stdDeviation="0.1875"></feGaussianBlur>
<feColorMatrix type="matrix" values="0 0 0 0 0 0 0 0 0 0 0 0 0 0 0 0 0 0 0.407609 0"></feColorMatrix>
<feBlend mode="normal" in2="BackgroundImageFix" result="effect1_dropShadow_18_197"></feBlend>
<feBlend mode="normal" in="SourceGraphic" in2="effect1_dropShadow_18_197" result="shape"></feBlend>
</filter>
<filter id="filter4_d_18_197" x="5.08746" y="5.17497" width="7.825" height="8.0125" filterUnits="userSpaceOnUse" color-interpolation-filters="sRGB">
<feFlood flood-opacity="0" result="BackgroundImageFix"></feFlood>
<feColorMatrix in="SourceAlpha" type="matrix" values="0 0 0 0 0 0 0 0 0 0 0 0 0 0 0 0 0 0 127 0" result="hardAlpha"></feColorMatrix>
<feOffset dy="0.375"></feOffset>
<feGaussianBlur stdDeviation="0.09375"></feGaussianBlur>
<feColorMatrix type="matrix" values="0 0 0 0 0 0 0 0 0 0 0 0 0 0 0 0 0 0 0.579031 0"></feColorMatrix>
<feBlend mode="normal" in2="BackgroundImageFix" result="effect1_dropShadow_18_197"></feBlend>
<feBlend mode="normal" in="SourceGraphic" in2="effect1_dropShadow_18_197" result="shape"></feBlend>
</filter>
<linearGradient id="paint0_linear_18_197" x1="1.92613" y1="0.0991004" x2="1.92613" y2="11.7205" gradientUnits="userSpaceOnUse">
<stop stop-color="#494949"></stop>
<stop offset="1" stop-color="#2B2B2B"></stop>
</linearGradient>
<linearGradient id="paint1_linear_18_197" x1="2.20003" y1="2.29998" x2="2.20003" y2="3.09998" gradientUnits="userSpaceOnUse">
<stop stop-color="#494949"></stop>
<stop offset="1" stop-color="#2B2B2B"></stop>
</linearGradient>
<linearGradient id="paint2_linear_18_197" x1="12.2189" y1="4.93792" x2="12.2189" y2="6.09998" gradientUnits="userSpaceOnUse">
<stop stop-color="#E9CD78"></stop>
<stop offset="1" stop-color="#E7B61D"></stop>
</linearGradient>
</defs>
</svg>
