<svg width="30" height="34" viewBox="0 0 30 34" fill="none" xmlns="http://www.w3.org/2000/svg">
<path d="M2.8696 21.6659V22.9932C2.8697 23.275 2.9379 23.5526 3.06838 23.8025C3.19886 24.0525 3.38775 24.267 3.61898 24.4283L8.87973 19.1674L7.42125 17.7089C7.38223 17.6699 7.33591 17.639 7.28493 17.6178C7.23396 17.5967 7.17931 17.5858 7.12413 17.5858C7.06895 17.5858 7.01432 17.5967 6.96335 17.6178C6.91237 17.639 6.86606 17.6699 6.82703 17.7089L2.8696 21.6659Z" fill="url('#paint0_linear_18_36')"></path>
<path d="M7.12369 15.9868C7.30005 15.9863 7.47475 16.0208 7.63767 16.0884C7.80059 16.1559 7.9485 16.2551 8.07282 16.3801L9.86934 18.1766L13.5579 14.488C13.9405 14.106 14.459 13.8915 14.9997 13.8915C15.5402 13.8915 16.0588 14.106 16.4414 14.488L21.5702 19.6168L23.1553 18.0316C23.4073 17.7803 23.7485 17.6391 24.1045 17.6391C24.4603 17.6391 24.8016 17.7803 25.0534 18.0316L27.1298 20.1097V11.0076C27.1298 10.7002 27.0489 10.3983 26.8951 10.1322C26.7414 9.86599 26.5204 9.64497 26.2542 9.49129L15.8751 3.49881C15.6089 3.34511 15.3069 3.26419 14.9995 3.26419C14.6921 3.26419 14.3901 3.34511 14.1239 3.49881L3.7446 9.49129C3.47843 9.64497 3.25738 9.86599 3.10368 10.1322C2.94998 10.3983 2.86905 10.7002 2.86899 11.0076V19.6849L6.17397 16.3799C6.29838 16.2548 6.44641 16.1556 6.60942 16.0882C6.77245 16.0208 6.94725 15.9862 7.12369 15.9868Z" fill="url('#paint1_linear_18_36')"></path>
<path d="M22.5604 20.6079L26.3798 24.4281C26.6111 24.2669 26.8 24.0522 26.9304 23.8023C27.0608 23.5525 27.1289 23.2749 27.1291 22.993V22.0902L24.4003 19.3615C24.3215 19.2827 24.2147 19.2385 24.1032 19.2385C23.9917 19.2385 23.8848 19.2827 23.806 19.3615L22.5604 20.6079Z" fill="url('#paint2_linear_18_36')"></path>
<path d="M21.5699 21.5979L20.5797 20.6079L15.4509 15.4792C15.3312 15.3597 15.169 15.2926 14.9999 15.2926C14.8307 15.2926 14.6685 15.3597 14.5488 15.4792L10.8603 19.1678L9.86992 20.1582L4.86945 25.158L14.1237 30.5014C14.3899 30.655 14.6919 30.736 14.9993 30.736C15.3067 30.736 15.6088 30.655 15.8749 30.5014L25.1292 25.158L21.5699 21.5979Z" fill="url('#paint3_linear_18_36')"></path>
<path d="M14.9998 1.65459C15.3431 1.65449 15.6805 1.74484 15.9777 1.91651L27.5734 8.61129C27.8708 8.78299 28.1176 9.02991 28.2892 9.32727C28.4609 9.62463 28.5513 9.96194 28.5513 10.3053V23.6949C28.5513 24.0382 28.4609 24.3754 28.2892 24.6728C28.1176 24.9701 27.8708 25.2171 27.5734 25.3887L15.9777 32.0835C15.6803 32.2551 15.3431 32.3456 14.9997 32.3456C14.6563 32.3456 14.319 32.2551 14.0217 32.0835L2.42604 25.3887C2.12869 25.2171 1.88177 24.9701 1.71011 24.6728C1.53844 24.3754 1.44807 24.0382 1.44808 23.6949V10.3053C1.44807 9.96194 1.53844 9.62463 1.71011 9.32727C1.88179 9.02991 2.12869 8.78299 2.42604 8.61129L14.0217 1.91651C14.319 1.74485 14.6564 1.65451 14.9998 1.65459ZM14.9998 0.206512C14.4023 0.206746 13.8153 0.364024 13.2978 0.662584L1.702 7.35736C1.18517 7.65685 0.755975 8.08672 0.457305 8.60402C0.158636 9.12134 0.000948981 9.70796 0 10.3053V23.6949C0.000979519 24.2922 0.158698 24.8789 0.457392 25.3961C0.756088 25.9135 1.1853 26.3433 1.70215 26.6428L13.2978 33.3376C13.8153 33.6363 14.4023 33.7935 14.9998 33.7935C15.5973 33.7935 16.1843 33.6363 16.7018 33.3376L28.2974 26.6428C28.8143 26.3434 29.2437 25.9135 29.5424 25.3963C29.8412 24.8789 29.9989 24.2922 30 23.6949V10.3053C29.9991 9.70796 29.8413 9.12134 29.5427 8.60403C29.244 8.08673 28.8148 7.65685 28.298 7.35736L16.7024 0.662584C16.1849 0.364043 15.5979 0.206767 15.0004 0.206512H14.9998Z" fill="url('#paint4_linear_18_36')"></path>
<defs>
<linearGradient id="paint0_linear_18_36" x1="5.87466" y1="3.47663" x2="5.87466" y2="30.8465" gradientUnits="userSpaceOnUse">
<stop offset="0.004" stop-color="#4C99D4"></stop>
<stop offset="0.5" stop-color="#56C3E6"></stop>
<stop offset="1" stop-color="#B0D8BC"></stop>
</linearGradient>
<linearGradient id="paint1_linear_18_36" x1="14.9994" y1="3.48318" x2="14.9994" y2="30.8572" gradientUnits="userSpaceOnUse">
<stop offset="0.004" stop-color="#4C99D4"></stop>
<stop offset="0.5" stop-color="#56C3E6"></stop>
<stop offset="1" stop-color="#B0D8BC"></stop>
</linearGradient>
<linearGradient id="paint2_linear_18_36" x1="24.8448" y1="3.47732" x2="24.8448" y2="30.8478" gradientUnits="userSpaceOnUse">
<stop offset="0.004" stop-color="#4C99D4"></stop>
<stop offset="0.5" stop-color="#56C3E6"></stop>
<stop offset="1" stop-color="#B0D8BC"></stop>
</linearGradient>
<linearGradient id="paint3_linear_18_36" x1="14.9993" y1="3.47844" x2="14.9993" y2="30.8441" gradientUnits="userSpaceOnUse">
<stop offset="0.004" stop-color="#4C99D4"></stop>
<stop offset="0.5" stop-color="#56C3E6"></stop>
<stop offset="1" stop-color="#B0D8BC"></stop>
</linearGradient>
<linearGradient id="paint4_linear_18_36" x1="15" y1="33.7935" x2="15" y2="0.206512" gradientUnits="userSpaceOnUse">
<stop stop-color="#B0D8BC"></stop>
<stop offset="0.5" stop-color="#56C3E6"></stop>
<stop offset="0.996" stop-color="#4C99D4"></stop>
</linearGradient>
</defs>
</svg>
