<svg width="20" height="20" viewBox="0 0 20 20" fill="none" xmlns="http://www.w3.org/2000/svg">
<path fill-rule="evenodd" clip-rule="evenodd" d="M10 19.75C15.3848 19.75 19.75 15.3848 19.75 10C19.75 4.61523 15.3848 0.25 10 0.25C4.61523 0.25 0.25 4.61523 0.25 10C0.25 15.3848 4.61523 19.75 10 19.75Z" fill="#35CADD"></path>
<mask id="mask0_18_109" style="mask-type: alpha" maskUnits="userSpaceOnUse" x="0" y="0" width="20" height="20">
<path fill-rule="evenodd" clip-rule="evenodd" d="M10 19.75C15.3848 19.75 19.75 15.3848 19.75 10C19.75 4.61523 15.3848 0.25 10 0.25C4.61523 0.25 0.25 4.61523 0.25 10C0.25 15.3848 4.61523 19.75 10 19.75Z" fill="white"></path>
</mask>
<g mask="url('#mask0_18_109')">
<path fill-rule="evenodd" clip-rule="evenodd" d="M2.90909 13.767L10 20.5256L16.6477 18.9744L21.0795 13.5454L20.4148 10.6648L16.5028 6.98853L12.2159 6.67613L10.3324 4.68181L9.22443 8.22726L6.89772 6.01135L2.90909 13.767Z" fill="url('#paint0_linear_18_109')"></path>
</g>
<path fill-rule="evenodd" clip-rule="evenodd" d="M2.90909 6.01137H6.89772V13.767H2.90909V6.01137ZM13.9886 13.7539C16.0724 13.7539 17.7617 12.0177 17.7617 9.87603C17.7617 7.73435 16.0724 5.99819 13.9886 5.99819C11.9048 5.99819 10.2156 7.73435 10.2156 9.87603C10.2156 12.0177 11.9048 13.7539 13.9886 13.7539ZM9.66761 4.66864H10.3324L7.89488 15.3057H7.23011L9.66761 4.66864Z" fill="white"></path>
<defs>
<linearGradient id="paint0_linear_18_109" x1="1.67673" y1="13.6299" x2="10.1205" y2="26.0543" gradientUnits="userSpaceOnUse">
<stop stop-color="#35B7C8"></stop>
<stop offset="1" stop-color="#35CADD"></stop>
</linearGradient>
</defs>
</svg>
