<svg width="25" height="24" viewBox="0 0 25 24" fill="none" xmlns="http://www.w3.org/2000/svg">
<path d="M12.8333 20C14.955 20 16.9899 19.1571 18.4902 17.6569C19.9905 16.1566 20.8333 14.1217 20.8333 12C20.8333 9.87827 19.9905 7.84344 18.4902 6.34315C16.9899 4.84285 14.955 4 12.8333 4C10.7116 4 8.67675 4.84285 7.17646 6.34315C5.67617 7.84344 4.83331 9.87827 4.83331 12C4.83331 14.1217 5.67617 16.1566 7.17646 17.6569C8.67675 19.1571 10.7116 20 12.8333 20V20ZM12.8333 22C7.31031 22 2.83331 17.523 2.83331 12C2.83331 6.477 7.31031 2 12.8333 2C18.3563 2 22.8333 6.477 22.8333 12C22.8333 17.523 18.3563 22 12.8333 22Z" fill="#CBD5E1"></path>
</svg>
